<svg width="32" height="32" viewBox="0 0 32 32" fill="none" xmlns="http://www.w3.org/2000/svg">
    <path d="M24.5 0H7.5C3.35786 0 0 3.35786 0 7.5V24.5C0 28.6421 3.35786 32 7.5 32H24.5C28.6421 32 32 28.6421 32 24.5V7.5C32 3.35786 28.6421 0 24.5 0Z" fill="url(#paint0_radial)"/>
    <path d="M16.0011 3.5C12.6064 3.5 12.1803 3.51488 10.847 3.5755C9.51625 3.6365 8.60787 3.84712 7.81313 4.15625C6.99088 4.4755 6.2935 4.90262 5.59875 5.59762C4.90338 6.2925 4.47625 6.98987 4.156 7.81175C3.846 8.60675 3.63512 9.5155 3.57525 10.8456C3.51562 12.179 3.5 12.6053 3.5 16.0001C3.5 19.395 3.515 19.8197 3.5755 21.153C3.63675 22.4837 3.84738 23.3921 4.15625 24.1869C4.47575 25.0091 4.90288 25.7065 5.59788 26.4013C6.2925 27.0966 6.98988 27.5247 7.8115 27.844C8.60687 28.1531 9.51537 28.3637 10.8459 28.4247C12.1792 28.4854 12.605 28.5002 15.9996 28.5002C19.3948 28.5002 19.8195 28.4854 21.1528 28.4247C22.4835 28.3637 23.3929 28.1531 24.1882 27.844C25.0101 27.5247 25.7065 27.0966 26.401 26.4013C27.0964 25.7065 27.5234 25.0091 27.8438 24.1873C28.151 23.3921 28.362 22.4835 28.4245 21.1532C28.4844 19.82 28.5 19.395 28.5 16.0001C28.5 12.6053 28.4844 12.1792 28.4245 10.8459C28.362 9.51512 28.151 8.60688 27.8438 7.81213C27.5234 6.98988 27.0964 6.2925 26.401 5.59762C25.7057 4.90237 25.0104 4.47525 24.1875 4.15637C23.3906 3.84712 22.4817 3.63638 21.151 3.5755C19.8176 3.51488 19.3931 3.5 15.9972 3.5H16.0011Z" fill="white"/>
    <defs>
        <radialGradient id="paint0_radial" cx="0" cy="0" r="1" gradientUnits="userSpaceOnUse" gradientTransform="translate(8.5 34.4646) rotate(-90) scale(31.7144 29.4969)">
            <stop stop-color="#FFDD55"/>
            <stop offset="0.1" stop-color="#FFDD55"/>
            <stop offset="0.5" stop-color="#FF543E"/>
            <stop offset="1" stop-color="#C837AB"/>
        </radialGradient>
        <radialGradient id="paint1_radial" cx="0" cy="0" r="1" gradientUnits="userSpaceOnUse" gradientTransform="translate(-5.36012 2.30512) rotate(78.681) scale(14.1765 58.436)">
            <stop stop-color="#3771C8"/>
            <stop offset="0.128" stop-color="#3771C8"/>
            <stop offset="1" stop-color="#6600FF" stop-opacity="0"/>
        </radialGradient>
    </defs>
</svg> 