<svg width="32" height="32" viewBox="0 0 32 32" fill="none" xmlns="http://www.w3.org/2000/svg">
    <path d="M0 4C0 1.79086 1.79086 0 4 0H28C30.2091 0 32 1.79086 32 4V28C32 30.2091 30.2091 32 28 32H4C1.79086 32 0 30.2091 0 28V4Z" fill="black"/>
    <path d="M20.6 8.74951H23.0537L17.6937 14.8912L24 23.2501H19.0629L15.1931 18.1815L10.7703 23.2501H8.31429L14.0469 16.6787L8 8.75065H13.0629L16.5554 13.3827L20.6 8.74951ZM19.7371 21.7781H21.0971L12.32 10.1449H10.8617L19.7371 21.7781Z" fill="white"/>
</svg> 