<svg width="32" height="32" viewBox="0 0 32 32" fill="none" xmlns="http://www.w3.org/2000/svg">
    <path d="M0 4C0 1.79086 1.79086 0 4 0H28C30.2091 0 32 1.79086 32 4V28C32 30.2091 30.2091 32 28 32H4C1.79086 32 0 30.2091 0 28V4Z" fill="#FF0000"/>
    <path d="M13.7143 19.4286L19.6457 16L13.7143 12.5714V19.4286ZM26.9257 10.48C27.0743 11.0171 27.1771 11.7371 27.2457 12.6514C27.3257 13.5657 27.36 14.3543 27.36 15.04L27.4286 16C27.4286 18.5029 27.2457 20.3429 26.9257 21.52C26.64 22.5486 25.9771 23.2114 24.9486 23.4971C24.4114 23.6457 23.4286 23.7486 21.92 23.8171C20.4343 23.8971 19.0743 23.9314 17.8171 23.9314L16 24C11.2114 24 8.22857 23.8171 7.05143 23.4971C6.02286 23.2114 5.36 22.5486 5.07428 21.52C4.92571 20.9829 4.82286 20.2629 4.75428 19.3486C4.67428 18.4343 4.64 17.6457 4.64 16.96L4.57143 16C4.57143 13.4971 4.75428 11.6571 5.07428 10.48C5.36 9.45143 6.02286 8.78857 7.05143 8.50286C7.58857 8.35429 8.57143 8.25143 10.08 8.18286C11.5657 8.10286 12.9257 8.06857 14.1829 8.06857L16 8C20.7886 8 23.7714 8.18286 24.9486 8.50286C25.9771 8.78857 26.64 9.45143 26.9257 10.48Z" fill="white"/>
</svg>